<svg xmlns="http://www.w3.org/2000/svg" viewBox="0 0 1200 1200" role="img" aria-label="ASTRA Labs Red Robin logo concept">
  <defs>
    <style>
      .red { fill: #FF3333; }
      .black { fill: #000000; }
      .white { fill: #FFFFFF; }
      .stroke-w { stroke: #FFFFFF; }
      .stroke-b { stroke: #000000; }
      .arc-text {
        font-family: "Segoe UI", Arial, sans-serif;
        font-weight: 700;
        font-size: 56px;
        letter-spacing: 3px;
        fill: #FFFFFF;
      }
    </style>

    <!-- Text paths -->
    <path id="topArc" d="M 150 600 A 450 450 0 0 1 1050 600" />
    <path id="bottomArc" d="M 1050 600 A 450 450 0 0 1 150 600" />
  </defs>

  <!-- Outer badge -->
  <circle cx="600" cy="600" r="560" class="red"/>
  <circle cx="600" cy="600" r="510" class="black" />
  <circle cx="600" cy="600" r="470" fill="none" stroke="#FFFFFF" stroke-width="8"/>

  <!-- Stars -->
  <g class="white">
    <circle cx="250" cy="400" r="8"/>
    <circle cx="330" cy="300" r="6"/>
    <circle cx="935" cy="380" r="7"/>
    <circle cx="875" cy="285" r="6"/>
    <circle cx="225" cy="760" r="6"/>
    <circle cx="960" cy="760" r="8"/>
  </g>

  <!-- Maple leaf -->
  <path class="red stroke-b" stroke-width="5"
        d="M600 235
           l40 75 85 -12 -50 65 35 80 -80 -28 -30 86 -30 -86 -80 28 35 -80 -50 -65 85 12 z"/>

  <!-- Planet horizon -->
  <path d="M 200 760 Q 600 590 1000 760 L 1000 870 Q 600 720 200 870 Z"
        fill="#FFFFFF" opacity="0.95"/>

  <!-- Wing group -->
  <g class="stroke-b" stroke-width="5">
    <!-- Left wing -->
    <path class="white" d="M560 560 C 500 470, 390 430, 300 430 C 370 500, 445 560, 545 600 Z"/>
    <path class="white" d="M550 610 C 470 575, 375 575, 290 620 C 375 650, 455 665, 545 655 Z"/>
    <path class="white" d="M540 670 C 470 665, 385 700, 330 760 C 410 760, 485 740, 545 710 Z"/>

    <!-- Right wing -->
    <path class="white" d="M640 560 C 700 470, 810 430, 900 430 C 830 500, 755 560, 655 600 Z"/>
    <path class="white" d="M650 610 C 730 575, 825 575, 910 620 C 825 650, 745 665, 655 655 Z"/>
    <path class="white" d="M660 670 C 730 665, 815 700, 870 760 C 790 760, 715 740, 655 710 Z"/>
  </g>

  <!-- Rocket body -->
  <g class="stroke-b" stroke-width="6">
    <path class="white" d="M600 330 C 645 380, 665 470, 665 640 L 535 640 C 535 470, 555 380, 600 330 Z"/>
    <rect x="575" y="640" width="50" height="190" class="white"/>

    <!-- Red center stripe -->
    <rect x="590" y="330" width="20" height="500" class="red" stroke="none"/>

    <!-- Fins -->
    <path class="red" d="M535 700 L 470 790 L 535 790 Z"/>
    <path class="red" d="M665 700 L 730 790 L 665 790 Z"/>

    <!-- Nose cone -->
    <path class="black" d="M600 270 L 640 330 L 560 330 Z"/>
  </g>

  <!-- Center line -->
  <line x1="600" y1="220" x2="600" y2="920" stroke="#FFFFFF" stroke-width="4" opacity="0.6"/>

  <!-- Arc text -->
  <text class="arc-text">
    <textPath href="#topArc" startOffset="50%" text-anchor="middle">ASTRA LABS</textPath>
  </text>
  <text class="arc-text">
    <textPath href="#bottomArc" startOffset="50%" text-anchor="middle">RED ROBIN</textPath>
  </text>
</svg>
